<svg xmlns="http://www.w3.org/2000/svg" viewBox="0 0 24 30"><path d="M21 24c0-1.7-1.3-3-3-3h-3v-9h1.5c.8 0 1.5-.7 1.5-1.5S17.3 9 16.5 9h-9C6.7 9 6 9.7 6 10.5S6.7 12 7.5 12H9v9H6c-1.7 0-3 1.3-3 3-1.7 0-3 1.3-3 3s1.3 3 3 3h18c1.7 0 3-1.3 3-3s-1.3-3-3-3z" fill-rule="evenodd" clip-rule="evenodd" fill="#333"/><path d="M9 0C7.3 0 6 1.3 6 3s1.3 3 3 3 3-1.3 3-3-1.3-3-3-3zm10.5 0c-.8 0-1.5.7-1.5 1.5S18.7 3 19.5 3 21 2.3 21 1.5 20.3 0 19.5 0z" fill-rule="evenodd" clip-rule="evenodd" fill="#53a665"/></svg>