<?xml version="1.0" encoding="utf-8"?>
<!-- Generator: Adobe Illustrator 22.1.0, SVG Export Plug-In . SVG Version: 6.00 Build 0)  -->
<svg version="1.1" id="Слой_1" xmlns="http://www.w3.org/2000/svg" xmlns:xlink="http://www.w3.org/1999/xlink" x="0px" y="0px"
	 viewBox="0 0 24 30" style="enable-background:new 0 0 24 30;" xml:space="preserve">
<style type="text/css">
	.st0{fill-rule:evenodd;clip-rule:evenodd;fill:#333333;}
	.st1{fill-rule:evenodd;clip-rule:evenodd;fill:#53A665;}
</style>
<g id="Lab">
	<g>
		<path class="st0" d="M21,24c0-1.7-1.3-3-3-3h-3v-9h1.5c0.8,0,1.5-0.7,1.5-1.5C18,9.7,17.3,9,16.5,9h-9C6.7,9,6,9.7,6,10.5
			C6,11.3,6.7,12,7.5,12H9v9H6c-1.7,0-3,1.3-3,3c-1.7,0-3,1.3-3,3c0,1.7,1.3,3,3,3h18c1.7,0,3-1.3,3-3C24,25.3,22.7,24,21,24z"/>
	</g>
</g>
<g id="Lab_copy">
	<g>
		<path class="st1" d="M9,0C7.3,0,6,1.3,6,3c0,1.7,1.3,3,3,3c1.7,0,3-1.3,3-3C12,1.3,10.7,0,9,0z M19.5,0C18.7,0,18,0.7,18,1.5
			C18,2.3,18.7,3,19.5,3S21,2.3,21,1.5C21,0.7,20.3,0,19.5,0z"/>
	</g>
</g>
</svg>
