<?xml version="1.0" encoding="utf-8"?>
<!-- Generator: Adobe Illustrator 22.1.0, SVG Export Plug-In . SVG Version: 6.00 Build 0)  -->
<svg version="1.1" id="Слой_1" xmlns="http://www.w3.org/2000/svg" xmlns:xlink="http://www.w3.org/1999/xlink" x="0px" y="0px"
	 viewBox="0 0 24 24" style="enable-background:new 0 0 24 24;" xml:space="preserve">
<style type="text/css">
	.st0{fill-rule:evenodd;clip-rule:evenodd;fill:#333333;}
	.st1{fill-rule:evenodd;clip-rule:evenodd;fill:#53A665;}
</style>
<g id="Code">
	<g>
		<path class="st0" d="M21.6,0H2.4C1.1,0,0,1.1,0,2.4v19.2C0,22.9,1.1,24,2.4,24h19.2c1.3,0,2.4-1.1,2.4-2.4V2.4
			C24,1.1,22.9,0,21.6,0z M21.6,19.2c0,1.3-1.1,2.4-2.4,2.4H4.8c-1.3,0-2.4-1.1-2.4-2.4v-12c0-1.3,1.1-2.4,2.4-2.4h14.4
			c1.3,0,2.4,1.1,2.4,2.4V19.2z"/>
	</g>
</g>
<g id="Code_copy">
	<g>
		<polygon class="st1" points="9.6,10.4 6.4,7.1 4.7,8.8 6.7,10.7 4.7,12.6 6.4,14.2 9.6,11 9.8,10.7 		"/>
	</g>
</g>
</svg>
